<svg width="238" height="211" viewBox="0 0 238 211" fill="none" xmlns="http://www.w3.org/2000/svg">
<path d="M41.583 75.4443H11.2422V210.446H41.583V75.4443Z" fill="#FFA755"/>
<path opacity="0.7" d="M41.583 75.4443H11.2422V210.446H41.583V75.4443Z" fill="#FAFAFA"/>
<path d="M88.0029 30.8208H57.6621V210.44H88.0029V30.8208Z" fill="#FFA755"/>
<path opacity="0.1" d="M88.0029 30.8208H57.6621V210.44H88.0029V30.8208Z" fill="black"/>
<path d="M134.425 75.4443H104.084V210.446H134.425V75.4443Z" fill="#FFA755"/>
<path opacity="0.4" d="M134.425 75.4443H104.084V210.446H134.425V75.4443Z" fill="black"/>
<path d="M30.8203 75.4443H0.479492V210.446H30.8203V75.4443Z" fill="#FFA755"/>
<path opacity="0.8" d="M30.8203 75.4443H0.479492V210.446H30.8203V75.4443Z" fill="#FAFAFA"/>
<path d="M77.2441 30.8208H46.9033V210.44H77.2441V30.8208Z" fill="#FFA755"/>
<path opacity="0.2" d="M77.2441 30.8208H46.9033V210.44H77.2441V30.8208Z" fill="#FAFAFA"/>
<path d="M123.661 75.4443H93.3203V210.446H123.661V75.4443Z" fill="#FFA755"/>
<path opacity="0.2" d="M123.661 75.4443H93.3203V210.446H123.661V75.4443Z" fill="black"/>
<path d="M237.148 148.501H236.516C236.501 136.856 233.293 125.438 227.243 115.488L227.786 115.16C233.894 125.21 237.132 136.741 237.148 148.501ZM223.731 110.321C221.948 107.963 220.002 105.734 217.906 103.65L218.355 103.208C220.474 105.318 222.439 107.577 224.236 109.967L223.731 110.321Z" fill="#FFA755"/>
<path opacity="0.3" d="M237.148 148.501H236.516C236.501 136.856 233.293 125.438 227.243 115.488L227.786 115.16C233.894 125.21 237.132 136.741 237.148 148.501ZM223.731 110.321C221.948 107.963 220.002 105.734 217.906 103.65L218.355 103.208C220.474 105.318 222.439 107.577 224.236 109.967L223.731 110.321Z" fill="black"/>
<path d="M216.795 104.737C205.181 93.1269 189.434 86.6017 173.012 86.5942H164.073V87.2575C156.323 88.3885 148.857 90.9778 142.071 94.8885C112.646 111.862 102.406 150.049 119.38 179.455C124.055 187.557 130.505 194.495 138.246 199.747C145.987 204.998 154.817 208.428 164.073 209.777V210.408H173.024C185.274 210.414 197.249 206.786 207.436 199.983C217.622 193.181 225.561 183.509 230.249 172.192C234.937 160.875 236.161 148.422 233.769 136.409C231.376 124.396 225.474 113.362 216.808 104.705L216.795 104.737ZM173.012 194.287C163.959 194.289 155.109 191.605 147.581 186.577C140.053 181.549 134.185 174.401 130.719 166.038C127.254 157.675 126.346 148.472 128.11 139.593C129.874 130.713 134.232 122.557 140.632 116.154C147.032 109.751 155.187 105.39 164.066 103.622C172.944 101.854 182.147 102.758 190.512 106.221C198.877 109.683 206.027 115.548 211.058 123.074C216.09 130.6 218.776 139.448 218.779 148.501C218.795 154.517 217.622 160.476 215.328 166.037C213.034 171.598 209.663 176.651 205.41 180.906C201.158 185.16 196.106 188.532 190.546 190.829C184.986 193.125 179.027 194.301 173.012 194.287Z" fill="#FFA755"/>
<path opacity="0.3" d="M216.795 104.737C205.181 93.1269 189.434 86.6017 173.012 86.5942H164.073V87.2575C156.323 88.3885 148.857 90.9778 142.071 94.8885C112.646 111.862 102.406 150.049 119.38 179.455C124.055 187.557 130.505 194.495 138.246 199.747C145.987 204.998 154.817 208.428 164.073 209.777V210.408H173.024C185.274 210.414 197.249 206.786 207.436 199.983C217.622 193.181 225.561 183.509 230.249 172.192C234.937 160.875 236.161 148.422 233.769 136.409C231.376 124.396 225.474 113.362 216.808 104.705L216.795 104.737ZM173.012 194.287C163.959 194.289 155.109 191.605 147.581 186.577C140.053 181.549 134.185 174.401 130.719 166.038C127.254 157.675 126.346 148.472 128.11 139.593C129.874 130.713 134.232 122.557 140.632 116.154C147.032 109.751 155.187 105.39 164.066 103.622C172.944 101.854 182.147 102.758 190.512 106.221C198.877 109.683 206.027 115.548 211.058 123.074C216.09 130.6 218.776 139.448 218.779 148.501C218.795 154.517 217.622 160.476 215.328 166.037C213.034 171.598 209.663 176.651 205.41 180.906C201.158 185.16 196.106 188.532 190.546 190.829C184.986 193.125 179.027 194.301 173.012 194.287Z" fill="black"/>
<path d="M209.827 148.501H225.979C225.991 162.139 221.499 175.4 213.202 186.223C204.904 197.046 193.264 204.826 180.091 208.354C166.917 211.883 152.947 210.963 140.35 205.738C127.754 200.512 117.235 191.273 110.428 179.455L124.426 171.376C129.461 180.104 137.235 186.926 146.543 190.785C155.851 194.643 166.172 195.321 175.905 192.714C185.638 190.107 194.239 184.361 200.372 176.367C206.505 168.373 209.829 158.577 209.827 148.501Z" fill="#FFA755"/>
<path opacity="0.2" d="M209.827 148.501H225.979C225.991 162.139 221.499 175.4 213.202 186.223C204.904 197.046 193.264 204.826 180.091 208.354C166.917 211.883 152.947 210.963 140.35 205.738C127.754 200.512 117.235 191.273 110.428 179.455L124.426 171.376C129.461 180.104 137.235 186.926 146.543 190.785C155.851 194.643 166.172 195.321 175.905 192.714C185.638 190.107 194.239 184.361 200.372 176.367C206.505 168.373 209.829 158.577 209.827 148.501Z" fill="#FAFAFA"/>
<path d="M164.072 86.5942C180.488 86.6043 196.228 93.1298 207.836 104.737C219.444 116.345 225.969 132.086 225.979 148.501H209.827C209.82 136.369 204.997 124.735 196.418 116.155C187.839 107.576 176.205 102.754 164.072 102.747V86.5942Z" fill="#FFA755"/>
<path d="M164.073 86.5942V102.747C156.039 102.744 148.147 104.857 141.189 108.873C134.231 112.889 128.452 118.665 124.435 125.623C120.418 132.58 118.304 140.472 118.305 148.506C118.305 156.54 120.421 164.432 124.44 171.388L110.429 179.455C93.4548 150.036 103.688 111.862 133.107 94.8759C142.525 89.4487 153.204 86.5927 164.073 86.5942Z" fill="#FFA755"/>
<path opacity="0.8" d="M164.073 86.5942V102.747C156.039 102.744 148.147 104.857 141.189 108.873C134.231 112.889 128.452 118.665 124.435 125.623C120.418 132.58 118.304 140.472 118.305 148.506C118.305 156.54 120.421 164.432 124.44 171.388L110.429 179.455C93.4548 150.036 103.688 111.862 133.107 94.8759C142.525 89.4487 153.204 86.5927 164.073 86.5942Z" fill="#FAFAFA"/>
<path d="M148.892 129.822L143.927 132.728L136.441 121.679L141.407 118.773L148.892 129.822Z" fill="#E4897B"/>
<path d="M141.168 129.588L146.614 126.12C146.706 126.058 146.819 126.032 146.929 126.047C147.04 126.062 147.141 126.117 147.214 126.202L150.581 130.119C150.661 130.22 150.719 130.338 150.752 130.464C150.784 130.589 150.79 130.72 150.768 130.848C150.747 130.976 150.699 131.098 150.627 131.207C150.556 131.315 150.462 131.407 150.353 131.477C148.458 132.652 147.447 133.126 145.053 134.635C143.575 135.57 140.631 137.668 138.591 138.969C136.55 140.27 135.167 138.337 135.9 137.598C139.178 134.357 139.955 132.279 140.549 130.384C140.659 130.056 140.877 129.775 141.168 129.588Z" fill="#263238"/>
<path d="M138.672 132.02H138.527C138.411 131.999 138.302 131.951 138.208 131.88C138.115 131.808 138.04 131.716 137.99 131.609C137.956 131.549 137.937 131.482 137.938 131.413C137.937 131.344 137.956 131.277 137.99 131.217C138.369 130.529 140.908 130.289 141.199 130.263C141.219 130.261 141.239 130.265 141.256 130.275C141.274 130.286 141.287 130.302 141.294 130.32C141.306 130.336 141.312 130.355 141.312 130.374C141.312 130.393 141.306 130.412 141.294 130.428C140.637 131.034 139.481 132.02 138.672 132.02ZM140.934 130.478C140.049 130.579 138.407 130.851 138.161 131.306C138.142 131.337 138.132 131.373 138.132 131.41C138.132 131.447 138.142 131.483 138.161 131.514C138.196 131.594 138.251 131.664 138.32 131.717C138.39 131.77 138.472 131.805 138.559 131.817C139.045 131.9 139.923 131.401 140.934 130.478Z" fill="#FFA755"/>
<path d="M140.882 130.472C140.042 130.472 138.671 130.169 138.45 129.657C138.393 129.525 138.38 129.322 138.658 129.108C138.76 129.024 138.877 128.964 139.003 128.929C139.13 128.894 139.262 128.886 139.391 128.905C140.307 129.025 141.242 130.245 141.286 130.295C141.295 130.309 141.3 130.326 141.3 130.343C141.3 130.359 141.295 130.376 141.286 130.39C141.282 130.405 141.272 130.419 141.26 130.429C141.248 130.439 141.233 130.445 141.217 130.447C141.106 130.465 140.994 130.474 140.882 130.472ZM139.252 129.089C139.079 129.088 138.912 129.149 138.778 129.259C138.557 129.43 138.608 129.543 138.627 129.581C138.797 129.979 140.187 130.327 141.021 130.276C140.606 129.72 140.027 129.307 139.366 129.095L139.252 129.089Z" fill="#FFA755"/>
<path d="M162.563 43.9537C162.468 44.4528 162.392 44.8065 162.298 45.2171L162.001 46.3858C161.792 47.1628 161.571 47.9208 161.369 48.6789C160.889 50.1886 160.358 51.6668 159.796 53.1008C159.234 54.5348 158.615 56.0067 157.977 57.428C157.661 58.1418 157.345 58.843 156.979 59.5442L156.72 60.0748L156.574 60.3654C156.505 60.5107 156.429 60.656 156.347 60.795C156.041 61.316 155.669 61.7958 155.241 62.2226C154.499 62.9455 153.646 63.5448 152.715 63.9977C151.901 64.3962 151.056 64.7259 150.188 64.9832C148.596 65.4453 146.966 65.7624 145.317 65.9307C142.167 66.2584 138.992 66.2584 135.842 65.9307L135.892 62.9617C137.333 62.8038 138.836 62.6396 140.314 62.3932C141.792 62.1468 143.214 61.9005 144.616 61.572C145.974 61.2575 147.305 60.835 148.596 60.3086C149.654 59.9412 150.613 59.3361 151.401 58.5398C151.503 58.4207 151.586 58.2864 151.647 58.1418L151.969 57.3143C152.247 56.6257 152.506 55.9309 152.765 55.236C153.296 53.8525 153.776 52.4502 154.262 51.0604C154.749 49.6707 155.191 48.262 155.595 46.8596C155.81 46.1584 156.012 45.4635 156.227 44.7686L156.499 43.7263L156.732 42.7661L162.563 43.9537Z" fill="#E4897B"/>
<path d="M158.552 36.5698C156.183 37.2015 154.521 46.9235 154.521 46.9235L161.053 51.3454C161.053 51.3454 167.314 41.5098 165.475 38.9071C163.593 36.2098 162.007 35.6918 158.552 36.5698Z" fill="#FFA755"/>
<path opacity="0.6" d="M158.552 36.5698C156.183 37.2015 154.521 46.9235 154.521 46.9235L161.053 51.3454C161.053 51.3454 167.314 41.5098 165.475 38.9071C163.593 36.2098 162.007 35.6918 158.552 36.5698Z" fill="#FAFAFA"/>
<path d="M158.338 40.1128L163.392 41.2878L163.878 46.2467C163.018 47.9994 162.069 49.7072 161.035 51.3635L157.125 48.6913C157.264 46.3919 157.694 41.6542 158.338 40.1128Z" fill="#FFA755"/>
<path opacity="0.3" d="M158.338 40.1128L163.392 41.2878L163.878 46.2467C163.018 47.9994 162.069 49.7072 161.035 51.3635L157.125 48.6913C157.264 46.3919 157.694 41.6542 158.338 40.1128Z" fill="#FAFAFA"/>
<path d="M136.727 62.9559L132.652 58.7993L132.115 64.6236C132.115 64.6236 135.173 66.6893 137.289 65.5775L136.727 62.9559Z" fill="#E4897B"/>
<path d="M127.857 58.2051L127.668 63.1071L132.115 64.6485L132.646 58.8241L127.857 58.2051Z" fill="#E4897B"/>
<path d="M126.607 131.395L122.526 127.345L130.581 116.587L134.661 120.63L126.607 131.395Z" fill="#E4897B"/>
<path d="M124.814 124.496L130.701 127.162C130.804 127.205 130.887 127.284 130.933 127.385C130.98 127.485 130.987 127.6 130.954 127.706L129.52 132.664C129.479 132.788 129.413 132.902 129.325 132.998C129.238 133.094 129.131 133.171 129.012 133.224C128.893 133.276 128.764 133.303 128.634 133.302C128.504 133.302 128.375 133.274 128.256 133.22C126.222 132.254 125.287 131.685 122.697 130.517C121.105 129.796 116.949 128.11 114.75 127.118C112.552 126.126 113.418 123.896 114.422 124.111C118.932 125.09 121.889 124.958 123.796 124.421C124.134 124.328 124.493 124.355 124.814 124.496Z" fill="#263238"/>
<path d="M136.448 121.679L140.308 127.377L145.273 124.471L141.413 118.78L136.448 121.679Z" fill="#CE6F64"/>
<path d="M134.661 120.63L130.574 116.587L126.424 122.134L130.511 126.183L134.661 120.63Z" fill="#CE6F64"/>
<path d="M184.648 71.2752H161.275C155.786 37.5358 158.527 36.5756 158.527 36.5756C158.527 36.5756 162.286 35.8049 166.222 35.3122C166.897 35.2301 167.573 35.1543 168.243 35.0911C171.774 34.8381 175.318 34.8381 178.849 35.0911C179.519 35.1227 180.189 35.1732 180.846 35.2301C183.504 35.4709 186.146 35.861 188.761 36.3987C184.244 55.9121 184.288 61.768 184.648 71.2752Z" fill="#FFA755"/>
<path opacity="0.6" d="M184.648 71.2752H161.275C155.786 37.5358 158.527 36.5756 158.527 36.5756C158.527 36.5756 162.286 35.8049 166.222 35.3122C166.897 35.2301 167.573 35.1543 168.243 35.0911C171.774 34.8381 175.318 34.8381 178.849 35.0911C179.519 35.1227 180.189 35.1732 180.846 35.2301C183.504 35.4709 186.146 35.861 188.761 36.3987C184.244 55.9121 184.288 61.768 184.648 71.2752Z" fill="#FAFAFA"/>
<path d="M180.871 35.2365L180.618 35.8303C180.485 36.1588 177.232 43.8024 170.928 48.9066L169.386 50.17L168.205 48.5718C164.661 43.7708 165.722 37.5296 166.247 35.3376C166.923 35.2555 167.598 35.1797 168.268 35.1165C171.799 34.8635 175.343 34.8635 178.874 35.1165C179.544 35.1291 180.214 35.1797 180.871 35.2365Z" fill="#FFA755"/>
<path opacity="0.1" d="M180.871 35.2365L180.618 35.8303C180.485 36.1588 177.232 43.8024 170.928 48.9066L169.386 50.17L168.205 48.5718C164.661 43.7708 165.722 37.5296 166.247 35.3376C166.923 35.2555 167.598 35.1797 168.268 35.1165C171.799 34.8635 175.343 34.8635 178.874 35.1165C179.544 35.1291 180.214 35.1797 180.871 35.2365Z" fill="#FAFAFA"/>
<path d="M167.124 6.0136C162.02 3.73314 158.95 12.4064 159.298 18.5466C159.645 24.6868 160.561 32.2167 157.87 30.9533C155.179 29.6899 157.087 27.7948 157.087 27.7948C157.087 27.7948 153.296 30.7954 157.598 32.4441C161.9 34.0929 169.55 33.935 174.023 31.8124C176.581 27.9527 175.482 13.5246 175.482 13.5246L167.124 6.0136Z" fill="#263238"/>
<path d="M177.819 23.1582C177.155 26.5694 176.486 32.8233 178.874 35.0974C178.874 35.0974 175.715 42.5705 169.733 47.4283C165.98 42.3431 168.267 35.0974 168.267 35.0974C172.057 34.1878 171.975 31.3641 171.312 28.7172L177.819 23.1582Z" fill="#E4897B"/>
<path d="M175.166 25.4258L171.312 28.7106C171.48 29.331 171.59 29.9653 171.641 30.6058C173.094 30.3973 175.09 28.7991 175.248 27.2767C175.335 26.6599 175.307 26.0324 175.166 25.4258Z" fill="#CE6F64"/>
<path d="M178.223 14.1691C178.855 19.8545 179.278 22.2234 176.96 25.603C173.473 30.6945 166.366 30.265 164.029 24.9081C161.925 20.0882 161.198 11.6423 166.29 8.41429C167.409 7.69912 168.692 7.28208 170.017 7.20284C171.343 7.1236 172.666 7.3848 173.862 7.96159C175.058 8.53837 176.087 9.41157 176.85 10.4981C177.613 11.5846 178.086 12.8484 178.223 14.1691Z" fill="#E4897B"/>
<path d="M166.922 10.2653C168.963 12.6594 175.134 19.6272 179.443 18.7238C183.864 17.7952 184.016 9.56409 178.684 6.1592C173.353 2.75431 161.445 3.84084 166.922 10.2653Z" fill="#263238"/>
<path d="M179.702 0.271439C175.64 -1.07409 175.28 2.89302 175.595 5.36299L180.586 9.03319C182.181 8.78156 183.725 8.27611 185.159 7.53605C187.118 6.41793 183.763 1.61697 179.702 0.271439Z" fill="#263238"/>
<path d="M180.617 19.0396C180.499 20.1326 179.974 21.141 179.145 21.8633C178.033 22.8045 176.928 21.9707 176.77 20.5999C176.631 19.3744 177.041 17.4414 178.381 16.9929C179.72 16.5443 180.743 17.7004 180.617 19.0396Z" fill="#E4897B"/>
<path d="M138.495 96.0698C138.324 101.199 139.891 107.441 141.609 112.646C141.975 113.758 142.348 114.825 142.715 115.804C144.281 120.075 145.684 123.05 145.684 123.05L138.804 126.967C138.804 126.967 137.869 125.792 136.492 123.726C135.861 122.816 135.191 121.723 134.452 120.485C130.598 114.042 125.557 103.511 125.317 92.3049C124.938 74.7687 161.287 71.2754 161.287 71.2754H178.475L173.662 84.9518C173.662 84.9518 138.804 86.7395 138.495 96.0698Z" fill="#FFA755"/>
<path opacity="0.6" d="M138.495 96.0698C138.324 101.199 139.891 107.441 141.609 112.646C141.975 113.758 142.348 114.825 142.715 115.804C144.281 120.075 145.684 123.05 145.684 123.05L138.804 126.967C138.804 126.967 137.869 125.792 136.492 123.726C135.861 122.816 135.191 121.723 134.452 120.485C130.598 114.042 125.557 103.511 125.317 92.3049C124.938 74.7687 161.287 71.2754 161.287 71.2754H178.475L173.662 84.9518C173.662 84.9518 138.804 86.7395 138.495 96.0698Z" fill="black"/>
<path d="M142.714 115.836C141.817 117.327 139.391 121.123 136.504 123.726C135.873 122.816 135.203 121.723 134.464 120.485L141.608 112.665C141.962 113.757 142.348 114.844 142.714 115.836Z" fill="#263238"/>
<path d="M148.633 81.54L147.9 88.9942C142.846 90.5861 138.905 92.7844 138.519 95.7281C137.66 89.1205 142.259 85.2418 148.633 81.54Z" fill="#263238"/>
<path d="M167.464 71.269C167.464 71.269 145.948 80.0497 142.67 89.7527C138.488 102.134 127.117 119.632 127.117 119.632L131.893 125.848C131.893 125.848 145.02 113.126 153.965 98.5587C165.171 80.2393 192.17 99.5884 184.678 71.269H167.464Z" fill="#FFA755"/>
<path opacity="0.6" d="M167.464 71.269C167.464 71.269 145.948 80.0497 142.67 89.7527C138.488 102.134 127.117 119.632 127.117 119.632L131.893 125.848C131.893 125.848 145.02 113.126 153.965 98.5587C165.171 80.2393 192.17 99.5884 184.678 71.269H167.464Z" fill="black"/>
<path d="M169.998 17.2581C170.08 17.7129 169.904 18.1299 169.607 18.1804C169.31 18.2309 168.975 17.9088 168.918 17.4476C168.861 16.9865 169.013 16.5822 169.31 16.5253C169.607 16.4685 169.916 16.8033 169.998 17.2581Z" fill="#263238"/>
<path d="M164.837 18.1803C164.919 18.6351 164.742 19.052 164.445 19.1026C164.149 19.1531 163.814 18.8309 163.757 18.3761C163.7 17.9213 163.852 17.5044 164.149 17.4475C164.445 17.3907 164.755 17.7381 164.837 18.1803Z" fill="#263238"/>
<path d="M164.288 17.454L163.132 17.334C163.132 17.334 163.852 18.0857 164.288 17.454Z" fill="#263238"/>
<path d="M166.341 18.7236C166.121 19.8368 165.749 20.9145 165.235 21.9264C165.5 22.0491 165.787 22.1126 166.079 22.1126C166.37 22.1126 166.658 22.0491 166.922 21.9264L166.341 18.7236Z" fill="#DE5753"/>
<path d="M169.551 23.1269C169.533 23.126 169.516 23.1202 169.502 23.1101C169.487 23.1001 169.476 23.0862 169.469 23.07C169.46 23.0482 169.461 23.0241 169.471 23.0028C169.48 22.9815 169.497 22.9648 169.519 22.9563C170.383 22.5367 171.06 21.8088 171.414 20.9159C171.418 20.9054 171.423 20.8957 171.431 20.8874C171.438 20.8791 171.447 20.8724 171.457 20.8677C171.467 20.863 171.478 20.8603 171.489 20.8599C171.5 20.8595 171.511 20.8614 171.522 20.8654C171.544 20.8739 171.561 20.8902 171.572 20.9113C171.582 20.9323 171.585 20.9564 171.579 20.9791C171.203 21.9229 170.483 22.6886 169.563 23.1205L169.551 23.1269Z" fill="#263238"/>
<path d="M170.573 15.2115C170.529 15.2123 170.486 15.1965 170.453 15.1673C170.195 14.9237 169.884 14.7438 169.544 14.6418C169.204 14.5398 168.845 14.5186 168.495 14.5798C168.473 14.5865 168.45 14.5887 168.427 14.5862C168.404 14.5838 168.382 14.5768 168.362 14.5655C168.342 14.5543 168.325 14.5392 168.31 14.521C168.296 14.5028 168.286 14.482 168.28 14.4598C168.269 14.4154 168.274 14.3682 168.297 14.3281C168.319 14.288 168.356 14.2582 168.4 14.245C168.807 14.1589 169.229 14.1713 169.63 14.2812C170.031 14.3911 170.4 14.5953 170.706 14.8767C170.738 14.9097 170.756 14.9539 170.756 14.9999C170.756 15.0459 170.738 15.0901 170.706 15.1231C170.693 15.1475 170.674 15.1683 170.651 15.1837C170.628 15.1992 170.601 15.2087 170.573 15.2115Z" fill="#263238"/>
<path d="M162.02 16.1275H161.957C161.914 16.1081 161.881 16.073 161.863 16.0295C161.845 15.986 161.845 15.9374 161.862 15.8938C162.02 15.5084 162.267 15.1662 162.583 14.8959C162.9 14.6256 163.276 14.4349 163.682 14.3398C163.727 14.3322 163.773 14.343 163.811 14.3696C163.848 14.3963 163.873 14.4367 163.881 14.4819C163.888 14.5271 163.877 14.5735 163.851 14.6108C163.824 14.6481 163.784 14.6733 163.738 14.6809C163.391 14.768 163.07 14.9359 162.8 15.1708C162.53 15.4057 162.319 15.701 162.184 16.0327C162.169 16.0625 162.145 16.0872 162.116 16.104C162.087 16.1207 162.054 16.1289 162.02 16.1275Z" fill="#263238"/>
<path d="M124.099 124.97C123.353 124.825 122.065 124.484 121.78 123.827C121.734 123.709 121.718 123.582 121.735 123.457C121.752 123.332 121.8 123.214 121.875 123.113C121.911 123.046 121.963 122.99 122.028 122.952C122.092 122.913 122.166 122.892 122.242 122.892C122.955 122.892 124.073 124.622 124.193 124.825C124.204 124.839 124.209 124.857 124.209 124.875C124.209 124.893 124.204 124.911 124.193 124.926C124.183 124.941 124.168 124.952 124.152 124.96C124.135 124.968 124.117 124.971 124.099 124.97ZM122.204 123.075C122.161 123.075 122.119 123.087 122.082 123.11C122.045 123.132 122.015 123.163 121.995 123.201C121.939 123.277 121.902 123.366 121.889 123.46C121.876 123.554 121.886 123.649 121.919 123.738C122.09 124.123 122.81 124.484 123.871 124.717C123.467 124.13 122.665 123.075 122.204 123.075Z" fill="#FFA755"/>
<path d="M124.098 124.97C124.083 124.97 124.069 124.966 124.056 124.96C124.043 124.953 124.031 124.944 124.022 124.932C123.611 124.37 123.245 122.867 123.599 122.368C123.657 122.286 123.742 122.228 123.839 122.202C123.936 122.177 124.039 122.186 124.129 122.229C124.225 122.254 124.312 122.302 124.386 122.368C124.459 122.434 124.517 122.516 124.553 122.608C124.887 123.353 124.218 124.85 124.186 124.913C124.179 124.928 124.169 124.941 124.155 124.951C124.142 124.961 124.127 124.968 124.11 124.97H124.098ZM123.933 122.387C123.897 122.385 123.861 122.393 123.829 122.41C123.797 122.426 123.77 122.451 123.75 122.481C123.485 122.854 123.75 124.08 124.085 124.667C124.243 124.256 124.616 123.221 124.376 122.69C124.349 122.623 124.307 122.563 124.254 122.515C124.2 122.466 124.136 122.431 124.066 122.412C124.024 122.395 123.979 122.387 123.933 122.387Z" fill="#FFA755"/>
<path d="M169.449 16.5316L168.293 16.4116C168.293 16.4116 169.013 17.1633 169.449 16.5316Z" fill="#263238"/>
<path d="M185.001 69.9045L185.184 71.9892C185.267 72.1534 185.077 72.3176 184.805 72.3176H161.18C160.971 72.3176 160.794 72.2166 160.782 72.0839L160.573 69.993C160.573 69.8477 160.744 69.7277 160.971 69.7277H184.616C184.69 69.7213 184.764 69.7342 184.832 69.7652C184.899 69.7962 184.958 69.8442 185.001 69.9045Z" fill="#FFA755"/>
<path opacity="0.2" d="M185.001 69.9045L185.184 71.9892C185.267 72.1534 185.077 72.3176 184.805 72.3176H161.18C160.971 72.3176 160.794 72.2166 160.782 72.0839L160.573 69.993C160.573 69.8477 160.744 69.7277 160.971 69.7277H184.616C184.69 69.7213 184.764 69.7342 184.832 69.7652C184.899 69.7962 184.958 69.8442 185.001 69.9045Z" fill="#FAFAFA"/>
<path d="M181.825 72.5445H182.457C182.583 72.5445 182.678 72.4813 182.671 72.3992L182.374 69.6829C182.374 69.6071 182.254 69.5376 182.128 69.5376H181.496C181.37 69.5376 181.275 69.6071 181.282 69.6829L181.578 72.3992C181.585 72.4813 181.698 72.5445 181.825 72.5445Z" fill="#FFA755"/>
<path opacity="0.6" d="M181.825 72.5445H182.457C182.583 72.5445 182.678 72.4813 182.671 72.3992L182.374 69.6829C182.374 69.6071 182.254 69.5376 182.128 69.5376H181.496C181.37 69.5376 181.275 69.6071 181.282 69.6829L181.578 72.3992C181.585 72.4813 181.698 72.5445 181.825 72.5445Z" fill="black"/>
<path d="M162.961 72.5445H163.592C163.719 72.5445 163.82 72.4813 163.807 72.3992L163.51 69.6829C163.51 69.6071 163.39 69.5376 163.264 69.5376H162.632C162.506 69.5376 162.411 69.6071 162.417 69.6829L162.714 72.3992C162.727 72.4813 162.809 72.5445 162.961 72.5445Z" fill="#FFA755"/>
<path opacity="0.6" d="M162.961 72.5445H163.592C163.719 72.5445 163.82 72.4813 163.807 72.3992L163.51 69.6829C163.51 69.6071 163.39 69.5376 163.264 69.5376H162.632C162.506 69.5376 162.411 69.6071 162.417 69.6829L162.714 72.3992C162.727 72.4813 162.809 72.5445 162.961 72.5445Z" fill="black"/>
<path d="M172.392 72.5445H173.024C173.15 72.5445 173.245 72.4813 173.239 72.3992L172.942 69.6829C172.942 69.6071 172.822 69.5376 172.695 69.5376H172.064C171.937 69.5376 171.843 69.6071 171.849 69.6829L172.146 72.3992C172.158 72.4813 172.285 72.5445 172.392 72.5445Z" fill="#FFA755"/>
<path opacity="0.6" d="M172.392 72.5445H173.024C173.15 72.5445 173.245 72.4813 173.239 72.3992L172.942 69.6829C172.942 69.6071 172.822 69.5376 172.695 69.5376H172.064C171.937 69.5376 171.843 69.6071 171.849 69.6829L172.146 72.3992C172.158 72.4813 172.285 72.5445 172.392 72.5445Z" fill="black"/>
<path d="M183.295 45.4575L186.308 48.0222C185.677 51.4334 185.235 54.2761 184.957 56.8029C184.394 54.2698 182.96 47.4284 183.295 45.4575Z" fill="#FFA755"/>
<path opacity="0.3" d="M183.295 45.4575L186.308 48.0222C185.677 51.4334 185.235 54.2761 184.957 56.8029C184.394 54.2698 182.96 47.4284 183.295 45.4575Z" fill="#FAFAFA"/>
<path d="M119.456 55.1353H160.441L166.379 79.3296H125.4L119.456 55.1353Z" fill="#FAFAFA"/>
<path d="M140.22 74.8257L165.286 80.669L181.369 76.1649L181.205 74.8257H140.22Z" fill="#FAFAFA"/>
<path d="M118.199 55.1353H159.178L165.116 79.3296H124.137L118.199 55.1353Z" fill="#FFA755"/>
<path opacity="0.2" d="M118.199 55.1353H159.178L165.116 79.3296H124.137L118.199 55.1353Z" fill="#FAFAFA"/>
<path d="M124.137 79.3296L124.301 80.6688H165.286L165.115 79.3296H124.137Z" fill="#FFA755"/>
<path opacity="0.2" d="M124.137 79.3296L124.301 80.6688H165.286L165.115 79.3296H124.137Z" fill="#FAFAFA"/>
<path d="M190.989 42.8232C192.151 46.2164 193.133 49.6682 193.933 53.1643C194.35 54.9204 194.698 56.6955 194.963 58.5401C195.095 59.4623 195.203 60.4036 195.26 61.3891C195.26 61.8818 195.298 62.3871 195.26 62.9178V63.3284V63.5495L195.228 63.8527C195.181 64.2453 195.097 64.6324 194.975 65.0087C194.545 66.2445 193.811 67.3522 192.84 68.2304C192.066 68.9478 191.219 69.5829 190.313 70.1255C188.685 71.0927 186.97 71.9069 185.19 72.5576C183.466 73.1893 181.729 73.7263 179.991 74.2C178.254 74.6738 176.517 75.0402 174.704 75.3308L173.99 72.4439C175.576 71.8627 177.212 71.25 178.779 70.5488C180.345 69.8476 181.937 69.2032 183.403 68.4389C184.851 67.7256 186.239 66.8953 187.553 65.9563C188.126 65.5462 188.655 65.0784 189.132 64.5602C189.452 64.2375 189.69 63.8435 189.827 63.4105C189.83 62.8759 189.795 62.3417 189.72 61.8123C189.625 61.0479 189.486 60.252 189.334 59.4434C189.012 57.8326 188.595 56.1901 188.178 54.5414C187.761 52.8926 187.262 51.2439 186.77 49.6014C186.277 47.959 185.772 46.2913 185.279 44.6868L190.989 42.8232Z" fill="#E4897B"/>
<path d="M188.784 36.4055C191.128 37.113 194.71 46.298 194.71 46.298L185.632 52.7856C185.632 52.7856 181.551 44.9335 182.531 41.9139C183.554 38.7617 186.119 35.5906 188.784 36.4055Z" fill="#FFA755"/>
<path opacity="0.6" d="M188.784 36.4055C191.128 37.113 194.71 46.298 194.71 46.298L185.632 52.7856C185.632 52.7856 181.551 44.9335 182.531 41.9139C183.554 38.7617 186.119 35.5906 188.784 36.4055Z" fill="#FAFAFA"/>
<path d="M175.184 72.6525L169.758 71.269L172.354 76.5122C172.354 76.5122 176.043 76.6701 177.262 74.6171L175.184 72.6525Z" fill="#E4897B"/>
<path d="M165.33 73.2653L167.737 77.5293L172.329 76.5122L169.733 71.2754L165.33 73.2653Z" fill="#E4897B"/>
</svg>
