<svg width="460" height="351" viewBox="0 0 460 351" fill="none" xmlns="http://www.w3.org/2000/svg">
<path d="M237.5 351C359.871 351 459.072 345.588 459.072 338.912C459.072 332.237 359.871 326.825 237.5 326.825C115.13 326.825 15.929 332.237 15.929 338.912C15.929 345.588 115.13 351 237.5 351Z" fill="#079090"/>
<path opacity="0.3" d="M237.5 351C359.871 351 459.072 345.588 459.072 338.912C459.072 332.237 359.871 326.825 237.5 326.825C115.13 326.825 15.929 332.237 15.929 338.912C15.929 345.588 115.13 351 237.5 351Z" fill="white"/>
<path d="M368.443 156.718C368.376 156.718 369.213 152.555 369.303 152.253C370.262 149.284 373.879 144.106 377.372 144.117C377.953 144.133 378.524 144.272 379.048 144.524C379.571 144.775 380.036 145.135 380.412 145.578C380.788 146.021 381.066 146.538 381.229 147.096C381.392 147.654 381.435 148.24 381.357 148.816C381.1 151.282 378.89 153.369 376.892 154.586C374.548 156.048 368.443 156.718 368.443 156.718Z" fill="#079090"/>
<path d="M361.668 128.692C364.961 129.875 366.602 135.969 366.49 139.094C366.49 139.362 365.865 143.559 365.809 143.559H365.742C365.999 144.518 366.278 145.556 366.557 146.684C367.048 148.782 367.584 151.148 367.997 153.782C368.475 156.608 368.789 159.459 368.934 162.321C369.112 165.523 369.004 168.736 368.611 171.919C368.604 171.956 368.604 171.994 368.611 172.031C369.046 171.104 370.329 168.537 370.452 168.348C372.171 165.736 377.015 161.651 380.397 162.633C380.951 162.804 381.463 163.089 381.9 163.471C382.337 163.852 382.689 164.321 382.933 164.847C383.177 165.373 383.308 165.945 383.317 166.525C383.326 167.105 383.214 167.68 382.986 168.214C382.093 170.513 379.415 171.953 377.171 172.589C374.638 173.314 368.99 172.455 368.544 172.388C368.067 175.616 367.374 178.808 366.468 181.942C365.947 183.772 365.381 185.603 364.771 187.433C365.162 186.641 365.53 185.938 365.586 185.837C367.305 183.225 372.149 179.14 375.53 180.111C376.086 180.281 376.599 180.565 377.037 180.946C377.475 181.328 377.827 181.797 378.072 182.323C378.316 182.85 378.447 183.422 378.455 184.003C378.463 184.583 378.349 185.159 378.12 185.692C377.227 188.002 374.548 189.431 372.305 190.078C370.061 190.726 365.195 190.078 363.923 189.911C363.688 190.603 363.454 191.306 363.209 191.998C362.092 195.346 360.887 198.695 359.86 201.976C359.492 203.092 359.168 204.298 358.844 205.458C359.202 204.755 359.503 204.164 359.559 204.086C361.266 201.474 366.122 197.389 369.492 198.36C370.046 198.531 370.559 198.816 370.996 199.198C371.433 199.579 371.786 200.048 372.031 200.573C372.276 201.099 372.408 201.67 372.418 202.25C372.429 202.83 372.318 203.406 372.093 203.941C371.2 206.24 368.51 207.68 366.267 208.316C364.023 208.952 359.637 208.394 358.119 208.182C357.818 209.387 357.527 210.581 357.293 211.753C357.148 212.557 356.958 213.327 356.858 214.142C356.757 214.957 356.635 215.749 356.523 216.53C356.367 218.059 356.188 219.644 356.077 221.14C355.987 222.178 355.92 223.171 355.853 224.165C356.199 223.048 356.969 220.749 357.025 220.559C358.265 218.106 360.108 216.009 362.383 214.466C362.506 214.186 362.66 213.92 362.84 213.673C363.156 213.186 363.572 212.771 364.059 212.455C364.546 212.138 365.094 211.928 365.668 211.838C366.241 211.747 366.828 211.778 367.389 211.929C367.949 212.08 368.472 212.347 368.923 212.713C371.579 214.945 370.91 221.285 369.693 224.165C369.626 224.332 368.633 226.084 367.997 227.178C368.477 226.598 368.923 226.062 369.425 225.415C370.396 224.232 371.401 223.071 372.472 221.821L374.113 220.046C374.649 219.432 375.296 218.863 375.888 218.271C377.283 216.921 378.767 215.615 380.296 214.332C379.247 213.483 375.597 210.392 374.548 208.293C373.499 206.195 372.751 203.26 373.845 201.05C374.084 200.519 374.433 200.044 374.868 199.657C375.303 199.27 375.814 198.979 376.37 198.803C376.925 198.628 377.511 198.571 378.089 198.637C378.668 198.702 379.226 198.89 379.727 199.186C382.685 201.039 382.986 207.345 382.216 210.347C382.216 210.537 381.368 212.646 380.91 213.796C381.836 213.037 382.752 212.267 383.712 211.564C386.48 209.421 389.348 207.345 392.194 205.258L394.795 203.327C394.426 203.025 390.006 199.454 388.823 197.11C387.785 195.023 387.026 192.076 388.12 189.855C388.361 189.325 388.71 188.852 389.145 188.466C389.58 188.08 390.092 187.79 390.646 187.614C391.201 187.438 391.786 187.381 392.364 187.446C392.942 187.511 393.5 187.697 394.002 187.991C396.96 189.855 397.261 196.161 396.491 199.152C396.435 199.387 395.286 202.423 394.951 203.182C396.859 201.753 398.746 200.324 400.531 198.84C402.977 196.843 405.288 194.688 407.451 192.389C407.284 192.255 402.652 188.549 401.447 186.138C400.398 184.051 399.65 181.105 400.744 178.895C400.981 178.364 401.329 177.89 401.763 177.503C402.197 177.116 402.708 176.825 403.262 176.649C403.816 176.473 404.401 176.416 404.979 176.482C405.557 176.548 406.114 176.735 406.614 177.031C409.583 178.884 409.885 185.19 409.114 188.192C409.059 188.382 408.188 190.703 407.742 191.797L407.92 191.898C410.037 189.527 411.938 186.972 413.601 184.263C414.528 182.79 415.342 181.328 416.101 179.877C415.164 179.274 410.934 176.529 409.605 174.43C408.277 172.332 407.273 169.631 408.11 167.31C408.29 166.763 408.583 166.261 408.968 165.833C409.354 165.406 409.824 165.064 410.349 164.829C410.874 164.594 411.442 164.471 412.018 164.467C412.593 164.464 413.163 164.58 413.69 164.809C416.849 166.327 417.831 172.566 417.396 175.658C417.396 175.826 416.95 177.511 416.626 178.739C416.95 178.08 417.307 177.41 417.608 176.774C418.724 174.386 419.673 172.131 420.454 170.078C420.901 168.961 421.269 167.845 421.57 166.919C420.956 165.803 418.568 161.506 418.334 159.106C418.099 156.706 418.479 153.76 420.298 152.086C420.713 151.679 421.209 151.364 421.754 151.161C422.298 150.958 422.88 150.873 423.46 150.909C424.04 150.946 424.606 151.105 425.121 151.375C425.635 151.645 426.088 152.02 426.448 152.476C428.546 155.278 426.548 161.26 424.74 163.816C424.584 164.028 421.738 167.164 421.704 167.164V167.098C421.392 168.046 421.057 169.062 420.655 170.156C419.918 172.176 419.048 174.464 417.954 176.852C416.788 179.471 415.473 182.02 414.014 184.487C412.389 187.251 410.521 189.865 408.434 192.299L408.355 192.389C409.226 191.842 411.704 190.424 411.916 190.335C414.795 189.107 421.068 188.404 423.367 191.049C423.736 191.498 424.006 192.02 424.16 192.579C424.314 193.139 424.35 193.725 424.263 194.3C424.177 194.874 423.971 195.424 423.659 195.914C423.347 196.404 422.936 196.822 422.452 197.143C420.432 198.572 417.396 198.259 415.175 197.579C412.664 196.786 408.478 192.958 408.088 192.657C405.911 195.085 403.573 197.363 401.09 199.476C399.639 200.726 398.154 201.932 396.625 203.115C397.395 202.679 398.087 202.289 398.188 202.244C401.056 201.016 407.329 200.313 409.628 202.958C409.998 203.407 410.269 203.928 410.425 204.488C410.58 205.048 410.616 205.635 410.529 206.209C410.443 206.784 410.237 207.335 409.924 207.824C409.611 208.314 409.198 208.733 408.713 209.052C406.704 210.481 403.668 210.168 401.447 209.488C399.226 208.807 395.509 205.592 394.549 204.733L392.797 206.083C389.984 208.238 387.216 210.369 384.482 212.546C383.533 213.316 382.629 214.108 381.714 214.89C382.406 214.499 382.975 214.175 383.075 214.142C385.944 212.903 392.216 212.211 394.516 214.845C394.887 215.293 395.16 215.814 395.317 216.374C395.473 216.934 395.509 217.522 395.423 218.097C395.336 218.672 395.129 219.223 394.815 219.713C394.501 220.202 394.087 220.62 393.6 220.939C391.58 222.368 388.556 222.055 386.334 221.385C384.113 220.716 380.754 217.792 379.638 216.776C378.734 217.613 377.818 218.439 376.981 219.298C376.412 219.89 375.865 220.414 375.307 221.051C374.749 221.687 374.191 222.256 373.7 222.859C372.729 224.042 371.713 225.27 370.787 226.453C370.14 227.267 369.537 228.06 368.934 228.852C369.861 228.082 371.736 226.62 371.903 226.497C374.548 224.845 380.642 223.205 383.321 225.459C383.754 225.849 384.099 226.325 384.336 226.856C384.573 227.388 384.695 227.963 384.695 228.545C384.695 229.127 384.573 229.703 384.336 230.234C384.099 230.766 383.754 231.242 383.321 231.631C381.546 233.339 378.51 233.529 376.211 233.172C373.667 232.77 369.068 229.823 368.499 229.399C367.494 230.716 366.535 232.011 365.642 233.25C362.55 237.524 360.139 241.196 358.487 243.797L358.32 244.054L356.177 243.016C356.289 242.848 356.4 242.692 356.512 242.514C358.242 239.924 360.764 236.263 363.979 232.011C364.994 230.672 366.099 229.254 367.249 227.803C366.052 226.502 364.934 225.13 363.901 223.696C361.434 224.656 356.311 224.7 355.652 224.7C355.552 226.352 355.463 227.959 355.396 229.477C355.172 234.757 355.195 239.154 355.251 242.223V242.592L352.896 241.476C352.896 238.429 353.018 234.288 353.331 229.41C353.431 227.725 353.576 225.928 353.744 224.098C353.085 223.93 347.761 222.557 345.752 220.95C343.933 219.499 342.013 217.133 342.08 214.666C342.074 214.085 342.191 213.508 342.423 212.975C342.655 212.441 342.998 211.963 343.427 211.571C343.857 211.179 344.365 210.882 344.918 210.7C345.471 210.518 346.055 210.455 346.634 210.514C350.105 210.961 353.007 216.564 353.588 219.633C353.588 219.812 353.766 221.865 353.833 223.093C353.911 222.334 353.967 221.609 354.045 220.861C354.201 219.332 354.402 217.803 354.614 216.162C354.737 215.381 354.871 214.588 354.994 213.785C355.117 212.981 355.329 212.155 355.496 211.329C355.92 209.432 356.434 207.523 357.003 205.615C355.664 205.47 350.92 204.912 348.878 203.751C346.835 202.59 344.603 200.536 344.301 198.092C344.206 197.517 344.234 196.929 344.382 196.366C344.53 195.803 344.796 195.277 345.162 194.824C345.528 194.371 345.985 194 346.504 193.736C347.024 193.472 347.593 193.321 348.174 193.293C351.668 193.203 355.396 198.304 356.423 201.251C356.49 201.44 356.992 203.639 357.237 204.856C357.594 203.74 357.929 202.557 358.353 201.418C359.47 198.07 360.731 194.788 361.958 191.474C362.338 190.458 362.695 189.442 363.075 188.438C362.595 188.438 356.936 187.846 354.659 186.54C352.639 185.424 350.384 183.326 350.072 180.882C349.98 180.307 350.01 179.721 350.16 179.159C350.31 178.597 350.576 178.073 350.941 177.621C351.306 177.168 351.762 176.797 352.279 176.532C352.797 176.267 353.364 176.114 353.945 176.082C357.449 175.993 361.177 181.094 362.204 184.04C362.282 184.263 362.996 187.389 363.142 188.248C363.945 186.016 364.738 183.783 365.374 181.551C366.318 178.538 367.063 175.465 367.606 172.354C367.383 172.354 361.467 171.796 359.146 170.457C357.115 169.341 354.86 167.243 354.559 164.798C354.467 164.224 354.497 163.637 354.647 163.076C354.797 162.514 355.063 161.99 355.428 161.537C355.793 161.085 356.249 160.714 356.766 160.449C357.284 160.184 357.851 160.031 358.432 159.999C361.925 159.921 365.653 165.01 366.68 167.957C366.747 168.158 367.293 170.569 367.528 171.718H367.729C368.189 168.574 368.369 165.396 368.265 162.22C368.265 160.468 368.097 158.805 367.93 157.175C366.814 157.175 361.746 157.175 359.514 156.215C357.282 155.256 354.905 153.492 354.324 151.092C354.169 150.53 354.135 149.942 354.223 149.366C354.312 148.789 354.521 148.238 354.837 147.748C355.153 147.258 355.569 146.84 356.058 146.522C356.546 146.204 357.097 145.993 357.673 145.902C361.144 145.434 365.407 150.088 366.758 152.912C366.825 153.068 367.405 154.709 367.796 155.903C367.718 155.177 367.64 154.418 367.539 153.726C367.193 151.104 366.702 148.715 366.256 146.617C365.988 145.423 365.731 144.385 365.474 143.347C364.358 142.789 359.983 140.489 358.476 138.625C356.969 136.761 355.652 134.094 356.244 131.694C356.371 131.122 356.619 130.584 356.97 130.115C357.321 129.645 357.768 129.256 358.28 128.972C358.793 128.688 359.36 128.517 359.944 128.468C360.528 128.42 361.116 128.496 361.668 128.692Z" fill="#079090"/>
<path d="M424.93 182.634C422.195 182.522 416.726 179.721 416.726 179.71C416.726 179.698 419.662 176.674 419.874 176.506C422.318 174.553 428.189 172.232 431.102 174.163C431.577 174.498 431.976 174.93 432.274 175.43C432.571 175.93 432.76 176.487 432.829 177.065C432.897 177.643 432.843 178.228 432.671 178.784C432.498 179.339 432.211 179.853 431.827 180.29C430.265 182.165 427.263 182.723 424.93 182.634Z" fill="#079090"/>
<g opacity="0.5">
<path d="M368.443 156.718C368.376 156.718 369.213 152.555 369.303 152.253C370.262 149.284 373.879 144.106 377.372 144.117C377.953 144.133 378.524 144.272 379.048 144.524C379.571 144.775 380.036 145.135 380.412 145.578C380.788 146.021 381.066 146.538 381.229 147.096C381.392 147.654 381.435 148.24 381.357 148.816C381.1 151.282 378.89 153.369 376.892 154.586C374.548 156.048 368.443 156.718 368.443 156.718Z" fill="white"/>
<path d="M361.668 128.692C364.961 129.875 366.602 135.969 366.49 139.094C366.49 139.362 365.865 143.559 365.809 143.559H365.742C365.999 144.518 366.278 145.556 366.557 146.684C367.048 148.782 367.584 151.148 367.997 153.782C368.475 156.608 368.789 159.459 368.934 162.321C369.112 165.523 369.004 168.736 368.611 171.919C368.604 171.956 368.604 171.994 368.611 172.031C369.046 171.104 370.329 168.537 370.452 168.348C372.171 165.736 377.015 161.651 380.397 162.633C380.951 162.804 381.463 163.089 381.9 163.471C382.337 163.852 382.689 164.321 382.933 164.847C383.177 165.373 383.308 165.945 383.317 166.525C383.326 167.105 383.214 167.68 382.986 168.214C382.093 170.513 379.415 171.953 377.171 172.589C374.638 173.314 368.99 172.455 368.544 172.388C368.067 175.616 367.374 178.808 366.468 181.942C365.947 183.772 365.381 185.603 364.771 187.433C365.162 186.641 365.53 185.938 365.586 185.837C367.305 183.225 372.149 179.14 375.53 180.111C376.086 180.281 376.599 180.565 377.037 180.946C377.475 181.328 377.827 181.797 378.072 182.323C378.316 182.85 378.447 183.422 378.455 184.003C378.463 184.583 378.349 185.159 378.12 185.692C377.227 188.002 374.548 189.431 372.305 190.078C370.061 190.726 365.195 190.078 363.923 189.911C363.688 190.603 363.454 191.306 363.209 191.998C362.092 195.346 360.887 198.695 359.86 201.976C359.492 203.092 359.168 204.298 358.844 205.458C359.202 204.755 359.503 204.164 359.559 204.086C361.266 201.474 366.122 197.389 369.492 198.36C370.046 198.531 370.559 198.816 370.996 199.198C371.433 199.579 371.786 200.048 372.031 200.573C372.276 201.099 372.408 201.67 372.418 202.25C372.429 202.83 372.318 203.406 372.093 203.941C371.2 206.24 368.51 207.68 366.267 208.316C364.023 208.952 359.637 208.394 358.119 208.182C357.818 209.387 357.527 210.581 357.293 211.753C357.148 212.557 356.958 213.327 356.858 214.142C356.757 214.957 356.635 215.749 356.523 216.53C356.367 218.059 356.188 219.644 356.077 221.14C355.987 222.178 355.92 223.171 355.853 224.165C356.199 223.048 356.969 220.749 357.025 220.559C358.265 218.106 360.108 216.009 362.383 214.466C362.506 214.186 362.66 213.92 362.84 213.673C363.156 213.186 363.572 212.771 364.059 212.455C364.546 212.138 365.094 211.928 365.668 211.838C366.241 211.747 366.828 211.778 367.389 211.929C367.949 212.08 368.472 212.347 368.923 212.713C371.579 214.945 370.91 221.285 369.693 224.165C369.626 224.332 368.633 226.084 367.997 227.178C368.477 226.598 368.923 226.062 369.425 225.415C370.396 224.232 371.401 223.071 372.472 221.821L374.113 220.046C374.649 219.432 375.296 218.863 375.888 218.271C377.283 216.921 378.767 215.615 380.296 214.332C379.247 213.483 375.597 210.392 374.548 208.293C373.499 206.195 372.751 203.26 373.845 201.05C374.084 200.519 374.433 200.044 374.868 199.657C375.303 199.27 375.814 198.979 376.37 198.803C376.925 198.628 377.511 198.571 378.089 198.637C378.668 198.702 379.226 198.89 379.727 199.186C382.685 201.039 382.986 207.345 382.216 210.347C382.216 210.537 381.368 212.646 380.91 213.796C381.836 213.037 382.752 212.267 383.712 211.564C386.48 209.421 389.348 207.345 392.194 205.258L394.795 203.327C394.426 203.025 390.006 199.454 388.823 197.11C387.785 195.023 387.026 192.076 388.12 189.855C388.361 189.325 388.71 188.852 389.145 188.466C389.58 188.08 390.092 187.79 390.646 187.614C391.201 187.438 391.786 187.381 392.364 187.446C392.942 187.511 393.5 187.697 394.002 187.991C396.96 189.855 397.261 196.161 396.491 199.152C396.435 199.387 395.286 202.423 394.951 203.182C396.859 201.753 398.746 200.324 400.531 198.84C402.977 196.843 405.288 194.688 407.451 192.389C407.284 192.255 402.652 188.549 401.447 186.138C400.398 184.051 399.65 181.105 400.744 178.895C400.981 178.364 401.329 177.89 401.763 177.503C402.197 177.116 402.708 176.825 403.262 176.649C403.816 176.473 404.401 176.416 404.979 176.482C405.557 176.548 406.114 176.735 406.614 177.031C409.583 178.884 409.885 185.19 409.114 188.192C409.059 188.382 408.188 190.703 407.742 191.797L407.92 191.898C410.037 189.527 411.938 186.972 413.601 184.263C414.528 182.79 415.342 181.328 416.101 179.877C415.164 179.274 410.934 176.529 409.605 174.43C408.277 172.332 407.273 169.631 408.11 167.31C408.29 166.763 408.583 166.261 408.968 165.833C409.354 165.406 409.824 165.064 410.349 164.829C410.874 164.594 411.442 164.471 412.018 164.467C412.593 164.464 413.163 164.58 413.69 164.809C416.849 166.327 417.831 172.566 417.396 175.658C417.396 175.826 416.95 177.511 416.626 178.739C416.95 178.08 417.307 177.41 417.608 176.774C418.724 174.386 419.673 172.131 420.454 170.078C420.901 168.961 421.269 167.845 421.57 166.919C420.956 165.803 418.568 161.506 418.334 159.106C418.099 156.706 418.479 153.76 420.298 152.086C420.713 151.679 421.209 151.364 421.754 151.161C422.298 150.958 422.88 150.873 423.46 150.909C424.04 150.946 424.606 151.105 425.121 151.375C425.635 151.645 426.088 152.02 426.448 152.476C428.546 155.278 426.548 161.26 424.74 163.816C424.584 164.028 421.738 167.164 421.704 167.164V167.098C421.392 168.046 421.057 169.062 420.655 170.156C419.918 172.176 419.048 174.464 417.954 176.852C416.788 179.471 415.473 182.02 414.014 184.487C412.389 187.251 410.521 189.865 408.434 192.299L408.355 192.389C409.226 191.842 411.704 190.424 411.916 190.335C414.795 189.107 421.068 188.404 423.367 191.049C423.736 191.498 424.006 192.02 424.16 192.579C424.314 193.139 424.35 193.725 424.263 194.3C424.177 194.874 423.971 195.424 423.659 195.914C423.347 196.404 422.936 196.822 422.452 197.143C420.432 198.572 417.396 198.259 415.175 197.579C412.664 196.786 408.478 192.958 408.088 192.657C405.911 195.085 403.573 197.363 401.09 199.476C399.639 200.726 398.154 201.932 396.625 203.115C397.395 202.679 398.087 202.289 398.188 202.244C401.056 201.016 407.329 200.313 409.628 202.958C409.998 203.407 410.269 203.928 410.425 204.488C410.58 205.048 410.616 205.635 410.529 206.209C410.443 206.784 410.237 207.335 409.924 207.824C409.611 208.314 409.198 208.733 408.713 209.052C406.704 210.481 403.668 210.168 401.447 209.488C399.226 208.807 395.509 205.592 394.549 204.733L392.797 206.083C389.984 208.238 387.216 210.369 384.482 212.546C383.533 213.316 382.629 214.108 381.714 214.89C382.406 214.499 382.975 214.175 383.075 214.142C385.944 212.903 392.216 212.211 394.516 214.845C394.887 215.293 395.16 215.814 395.317 216.374C395.473 216.934 395.509 217.522 395.423 218.097C395.336 218.672 395.129 219.223 394.815 219.713C394.501 220.202 394.087 220.62 393.6 220.939C391.58 222.368 388.556 222.055 386.334 221.385C384.113 220.716 380.754 217.792 379.638 216.776C378.734 217.613 377.818 218.439 376.981 219.298C376.412 219.89 375.865 220.414 375.307 221.051C374.749 221.687 374.191 222.256 373.7 222.859C372.729 224.042 371.713 225.27 370.787 226.453C370.14 227.267 369.537 228.06 368.934 228.852C369.861 228.082 371.736 226.62 371.903 226.497C374.548 224.845 380.642 223.205 383.321 225.459C383.754 225.849 384.099 226.325 384.336 226.856C384.573 227.388 384.695 227.963 384.695 228.545C384.695 229.127 384.573 229.703 384.336 230.234C384.099 230.766 383.754 231.242 383.321 231.631C381.546 233.339 378.51 233.529 376.211 233.172C373.667 232.77 369.068 229.823 368.499 229.399C367.494 230.716 366.535 232.011 365.642 233.25C362.55 237.524 360.139 241.196 358.487 243.797L358.32 244.054L356.177 243.016C356.289 242.848 356.4 242.692 356.512 242.514C358.242 239.924 360.764 236.263 363.979 232.011C364.994 230.672 366.099 229.254 367.249 227.803C366.052 226.502 364.934 225.13 363.901 223.696C361.434 224.656 356.311 224.7 355.652 224.7C355.552 226.352 355.463 227.959 355.396 229.477C355.172 234.757 355.195 239.154 355.251 242.223V242.592L352.896 241.476C352.896 238.429 353.018 234.288 353.331 229.41C353.431 227.725 353.576 225.928 353.744 224.098C353.085 223.93 347.761 222.557 345.752 220.95C343.933 219.499 342.013 217.133 342.08 214.666C342.074 214.085 342.191 213.508 342.423 212.975C342.655 212.441 342.998 211.963 343.427 211.571C343.857 211.179 344.365 210.882 344.918 210.7C345.471 210.518 346.055 210.455 346.634 210.514C350.105 210.961 353.007 216.564 353.588 219.633C353.588 219.812 353.766 221.865 353.833 223.093C353.911 222.334 353.967 221.609 354.045 220.861C354.201 219.332 354.402 217.803 354.614 216.162C354.737 215.381 354.871 214.588 354.994 213.785C355.117 212.981 355.329 212.155 355.496 211.329C355.92 209.432 356.434 207.523 357.003 205.615C355.664 205.47 350.92 204.912 348.878 203.751C346.835 202.59 344.603 200.536 344.301 198.092C344.206 197.517 344.234 196.929 344.382 196.366C344.53 195.803 344.796 195.277 345.162 194.824C345.528 194.371 345.985 194 346.504 193.736C347.024 193.472 347.593 193.321 348.174 193.293C351.668 193.203 355.396 198.304 356.423 201.251C356.49 201.44 356.992 203.639 357.237 204.856C357.594 203.74 357.929 202.557 358.353 201.418C359.47 198.07 360.731 194.788 361.958 191.474C362.338 190.458 362.695 189.442 363.075 188.438C362.595 188.438 356.936 187.846 354.659 186.54C352.639 185.424 350.384 183.326 350.072 180.882C349.98 180.307 350.01 179.721 350.16 179.159C350.31 178.597 350.576 178.073 350.941 177.621C351.306 177.168 351.762 176.797 352.279 176.532C352.797 176.267 353.364 176.114 353.945 176.082C357.449 175.993 361.177 181.094 362.204 184.04C362.282 184.263 362.996 187.389 363.142 188.248C363.945 186.016 364.738 183.783 365.374 181.551C366.318 178.538 367.063 175.465 367.606 172.354C367.383 172.354 361.467 171.796 359.146 170.457C357.115 169.341 354.86 167.243 354.559 164.798C354.467 164.224 354.497 163.637 354.647 163.076C354.797 162.514 355.063 161.99 355.428 161.537C355.793 161.085 356.249 160.714 356.766 160.449C357.284 160.184 357.851 160.031 358.432 159.999C361.925 159.921 365.653 165.01 366.68 167.957C366.747 168.158 367.293 170.569 367.528 171.718H367.729C368.189 168.574 368.369 165.396 368.265 162.22C368.265 160.468 368.097 158.805 367.93 157.175C366.814 157.175 361.746 157.175 359.514 156.215C357.282 155.256 354.905 153.492 354.324 151.092C354.169 150.53 354.135 149.942 354.223 149.366C354.312 148.789 354.521 148.238 354.837 147.748C355.153 147.258 355.569 146.84 356.058 146.522C356.546 146.204 357.097 145.993 357.673 145.902C361.144 145.434 365.407 150.088 366.758 152.912C366.825 153.068 367.405 154.709 367.796 155.903C367.718 155.177 367.64 154.418 367.539 153.726C367.193 151.104 366.702 148.715 366.256 146.617C365.988 145.423 365.731 144.385 365.474 143.347C364.358 142.789 359.983 140.489 358.476 138.625C356.969 136.761 355.652 134.094 356.244 131.694C356.371 131.122 356.619 130.584 356.97 130.115C357.321 129.645 357.768 129.256 358.28 128.972C358.793 128.688 359.36 128.517 359.944 128.468C360.528 128.42 361.116 128.496 361.668 128.692Z" fill="white"/>
<path d="M424.93 182.634C422.195 182.522 416.726 179.721 416.726 179.71C416.726 179.699 419.662 176.674 419.874 176.506C422.318 174.553 428.189 172.232 431.102 174.163C431.577 174.498 431.976 174.93 432.274 175.43C432.571 175.93 432.76 176.487 432.829 177.065C432.897 177.643 432.843 178.228 432.671 178.784C432.498 179.339 432.211 179.853 431.827 180.29C430.265 182.165 427.263 182.723 424.93 182.634Z" fill="white"/>
</g>
<path d="M392.998 251.119C392.998 251.119 376.401 211.106 367.115 212.847C357.829 214.588 383.02 276.622 383.02 276.622C383.02 276.622 353.822 221.542 333.911 221.542C313.999 221.542 341.21 282.426 366.423 302.717C366.423 302.717 326.611 259.813 303.385 269.088C280.158 278.363 349.838 321.847 349.838 321.847C349.838 321.847 309.356 309.09 313.999 318.945C318.642 328.8 331.254 330.542 331.254 330.542L285.493 332.863H444.763L408.925 329.381C408.925 329.381 446.091 310.831 436.136 303.297C426.18 295.763 404.282 311.992 404.282 311.992C404.282 311.992 442.107 270.249 434.807 254.59C427.508 238.931 394.984 283.006 394.984 283.006C394.984 283.006 421.537 226.765 416.191 216.91C410.844 207.055 392.998 251.119 392.998 251.119Z" fill="#079090"/>
<path opacity="0.4" d="M392.998 251.119C392.998 251.119 376.401 211.106 367.115 212.847C357.829 214.588 383.02 276.622 383.02 276.622C383.02 276.622 353.822 221.542 333.911 221.542C313.999 221.542 341.21 282.426 366.423 302.717C366.423 302.717 326.611 259.813 303.385 269.088C280.158 278.363 349.838 321.847 349.838 321.847C349.838 321.847 309.356 309.09 313.999 318.945C318.642 328.8 331.254 330.542 331.254 330.542L285.493 332.863H444.763L408.925 329.381C408.925 329.381 446.091 310.831 436.136 303.297C426.18 295.763 404.282 311.992 404.282 311.992C404.282 311.992 442.107 270.249 434.807 254.59C427.508 238.931 394.984 283.006 394.984 283.006C394.984 283.006 421.537 226.765 416.191 216.91C410.844 207.055 392.998 251.119 392.998 251.119Z" fill="white"/>
<path d="M398.31 253.217C383.7 296.355 383.7 326.881 383.7 326.881C383.7 326.881 400.956 327.539 418.88 314.269" stroke="#323550" stroke-linecap="round" stroke-linejoin="round"/>
<path d="M391.011 276.455C387.998 263.556 384.002 250.907 379.057 238.618" stroke="#323550" stroke-linecap="round" stroke-linejoin="round"/>
<path d="M347.873 251.23L385.029 306.311C385.029 306.311 410.253 285.105 418.88 273.129" stroke="#323550" stroke-linecap="round" stroke-linejoin="round"/>
<path d="M384.37 319.593C384.37 319.593 345.217 301.009 329.29 290.428" stroke="#323550" stroke-linecap="round" stroke-linejoin="round"/>
<path d="M349.224 22.5604H229.978C225.096 22.5604 221.138 26.5181 221.138 31.4001V324.023C221.138 328.905 225.096 332.863 229.978 332.863H349.224C354.106 332.863 358.063 328.905 358.063 324.023V31.4001C358.063 26.5181 354.106 22.5604 349.224 22.5604Z" fill="white" stroke="#323550" stroke-linecap="round" stroke-linejoin="round"/>
<path d="M353.487 76.8818C353.005 76.8818 352.542 76.6901 352.201 76.349C351.86 76.0078 351.668 75.545 351.668 75.0625V50.6754C351.704 50.2161 351.912 49.7872 352.25 49.4744C352.588 49.1616 353.032 48.9878 353.493 48.9878C353.954 48.9878 354.397 49.1616 354.736 49.4744C355.074 49.7872 355.282 50.2161 355.318 50.6754V75.0179C355.322 75.2611 355.278 75.5027 355.188 75.7287C355.098 75.9546 354.964 76.1604 354.794 76.3339C354.623 76.5074 354.42 76.6453 354.196 76.7394C353.971 76.8334 353.73 76.8819 353.487 76.8818Z" fill="#323550"/>
<path d="M353.487 99.472C353.005 99.472 352.542 99.2803 352.201 98.9391C351.86 98.598 351.668 98.1352 351.668 97.6527V84.025C351.704 83.5656 351.912 83.1367 352.25 82.8239C352.588 82.5111 353.032 82.3373 353.493 82.3373C353.954 82.3373 354.397 82.5111 354.736 82.8239C355.074 83.1367 355.282 83.5656 355.318 84.025V97.6527C355.315 98.1362 355.121 98.599 354.778 98.9398C354.435 99.2807 353.971 99.472 353.487 99.472Z" fill="#323550"/>
<path d="M338.9 22.5605H219.654C214.772 22.5605 210.814 26.5181 210.814 31.4001V324.023C210.814 328.905 214.772 332.863 219.654 332.863H338.9C343.782 332.863 347.739 328.905 347.739 324.023V31.4001C347.739 26.5181 343.782 22.5605 338.9 22.5605Z" fill="#323550" stroke="#323550" stroke-linecap="round" stroke-linejoin="round"/>
<path d="M338.621 43.2198H219.933V309.369H338.621V43.2198Z" fill="white"/>
<path d="M261.653 34.7149H293.25" stroke="white" stroke-width="3" stroke-linecap="round" stroke-linejoin="round"/>
<path d="M275.024 318.789C275.024 320.965 273.663 322.729 271.977 322.729C270.292 322.729 268.941 320.965 268.941 318.789C268.941 316.612 270.303 314.838 271.977 314.838C273.651 314.838 275.024 316.601 275.024 318.789Z" fill="white"/>
<path d="M279.277 109.45C290.643 109.45 299.858 98.7065 299.858 85.4536C299.858 72.2007 290.643 61.4571 279.277 61.4571C267.91 61.4571 258.695 72.2007 258.695 85.4536C258.695 98.7065 267.91 109.45 279.277 109.45Z" fill="white"/>
<path d="M279.277 85.1522C283.592 85.1522 287.089 81.0697 287.089 76.0336C287.089 70.9975 283.592 66.9149 279.277 66.9149C274.962 66.9149 271.464 70.9975 271.464 76.0336C271.464 81.0697 274.962 85.1522 279.277 85.1522Z" fill="#323550" stroke="#323550" stroke-linecap="round" stroke-linejoin="round"/>
<path d="M279.277 87.5742C271.464 87.5742 265.068 93.5678 265.068 100.968C265.075 101.656 265.138 102.343 265.258 103.021C266.991 105.044 269.142 106.668 271.561 107.781C273.981 108.894 276.613 109.47 279.277 109.47C281.94 109.47 284.572 108.894 286.992 107.781C289.412 106.668 291.562 105.044 293.295 103.021C293.406 102.342 293.465 101.656 293.474 100.968C293.474 93.5678 287.112 87.5742 279.277 87.5742Z" fill="#323550" stroke="#323550" stroke-linecap="round" stroke-linejoin="round"/>
<path d="M304.3 189.978H254.253C252.929 189.926 251.679 189.35 250.779 188.376C249.879 187.403 249.403 186.112 249.454 184.788V153.894C249.454 136.092 262.847 121.605 279.277 121.605C295.706 121.605 309.088 136.114 309.088 153.894V184.766C309.117 185.422 309.015 186.078 308.79 186.696C308.565 187.313 308.22 187.881 307.775 188.365C307.33 188.849 306.794 189.24 306.198 189.517C305.602 189.794 304.957 189.951 304.3 189.978ZM259.041 179.598H299.501V153.927C299.501 141.851 290.427 132.018 279.277 132.018C268.127 132.018 259.041 141.851 259.041 153.927V179.598Z" fill="#323550"/>
<path d="M314.021 168.894H244.532V234.634H314.021V168.894Z" fill="#6ABCBC"/>
<path d="M289.4 214.153L284.243 201.753C285.384 200.891 286.306 199.773 286.936 198.49C287.566 197.207 287.886 195.794 287.871 194.364C287.871 189.42 284.176 185.435 279.611 185.435C275.047 185.435 271.363 189.431 271.363 194.364C271.346 195.793 271.664 197.206 272.292 198.489C272.92 199.772 273.841 200.89 274.98 201.753L269.834 214.153H289.4Z" fill="#323550" stroke="#323550" stroke-linecap="round" stroke-linejoin="round"/>
<path d="M258.104 293.71C258.211 293.788 258.34 293.831 258.472 293.833C258.567 293.832 258.66 293.809 258.744 293.764C258.828 293.719 258.899 293.655 258.952 293.576L338.621 185.212V183.158L258.015 292.861C257.965 292.923 257.927 292.994 257.905 293.07C257.882 293.146 257.875 293.225 257.883 293.304C257.892 293.383 257.915 293.459 257.953 293.529C257.991 293.598 258.042 293.66 258.104 293.71Z" fill="white"/>
<path d="M322.593 82.2615C322.546 82.3258 322.511 82.3988 322.492 82.4765C322.473 82.5541 322.47 82.6347 322.483 82.7136C322.495 82.7926 322.523 82.8683 322.565 82.9363C322.607 83.0043 322.662 83.0632 322.727 83.1097C322.858 83.2028 323.02 83.2408 323.179 83.2158C323.337 83.1908 323.48 83.1046 323.575 82.9758L338.621 62.5174V60.5084L322.593 82.2615Z" fill="white"/>
<path d="M219.933 223.975L318.285 90.2306C318.38 90.1004 318.419 89.9378 318.394 89.7787C318.369 89.6197 318.281 89.4771 318.151 89.3824C318.021 89.2876 317.858 89.2485 317.699 89.2736C317.54 89.2988 317.397 89.3861 317.303 89.5163L219.977 221.921L219.933 223.975Z" fill="white"/>
<path d="M248.862 306.902C248.957 306.901 249.051 306.878 249.136 306.835C249.221 306.793 249.295 306.732 249.353 306.657L254.934 299.112C254.982 299.047 255.016 298.974 255.035 298.897C255.054 298.819 255.057 298.739 255.045 298.66C255.032 298.581 255.004 298.505 254.962 298.437C254.92 298.369 254.865 298.31 254.8 298.263C254.669 298.17 254.507 298.132 254.349 298.157C254.19 298.182 254.048 298.269 253.952 298.397L248.371 305.931C248.323 305.995 248.288 306.067 248.268 306.144C248.249 306.222 248.244 306.302 248.256 306.381C248.267 306.46 248.294 306.536 248.335 306.604C248.376 306.673 248.43 306.732 248.494 306.779C248.599 306.862 248.729 306.906 248.862 306.902Z" fill="white"/>
<path d="M338.621 206.909L273.216 295.875C273.15 295.965 273.11 296.072 273.101 296.184C273.092 296.295 273.114 296.407 273.165 296.507C273.216 296.606 273.294 296.69 273.389 296.748C273.485 296.806 273.595 296.836 273.707 296.835C273.803 296.837 273.897 296.815 273.983 296.773C274.068 296.73 274.142 296.667 274.198 296.589L338.621 208.952V206.909Z" fill="white"/>
<path d="M108.913 81.8709C110.019 79.4188 110.554 76.7471 110.475 74.058C110.475 69.069 104.437 66.1783 97.3385 65.3858C90.24 64.5934 87.0925 67.4841 88.1417 69.3257C89.2319 70.8445 90.5627 72.1753 92.0816 73.2656C92.0816 73.2656 84.9831 69.3257 80.2507 72.4843C75.5184 75.6429 82.3602 74.3259 81.0432 77.4734C79.7262 80.6208 72.3709 79.315 70.5293 87.7193C68.6878 96.1237 73.9447 104.539 69.2123 108.222C64.48 111.906 50.2384 106.905 46.0864 116.102C41.9345 125.299 47.8275 129.384 37.8495 135.165C27.8714 140.947 20.5943 146.594 23.485 160.78C26.3758 174.966 35.8405 179.933 54.5019 174.921C73.1634 169.91 71.8464 158.626 77.9404 147.019C84.0344 135.411 93.4544 137.822 96.3451 131.248C99.2359 124.674 95.5527 116.794 95.8205 110.745C96.0884 104.695 102.127 103.39 104.493 96.2353C106.859 89.081 108.913 81.8709 108.913 81.8709Z" fill="#323550" stroke="#323550" stroke-linecap="round" stroke-linejoin="round"/>
<path d="M25.6615 160.512C25.172 161.501 24.9234 162.591 24.936 163.693" stroke="white" stroke-width="0.5" stroke-linecap="round" stroke-linejoin="round"/>
<path d="M98.8229 76.6586C98.8229 76.6586 95.5416 72.8638 101.859 74.6273C109.817 76.8595 100.475 86.0675 96.8809 87.9202C89.6708 91.6146 80.1392 90.4315 74.5586 97.1505C69.4914 103.222 76.3332 109.551 73.2974 114.361C70.2615 119.171 58.107 116.381 54.0667 122.174C50.0263 127.966 61.3996 140.4 49.7585 147.231C41.343 152.175 32.1238 154.072 27.6705 157.99" stroke="white" stroke-width="0.5" stroke-linecap="round" stroke-linejoin="round"/>
<path d="M79.9494 99.1149C79.2596 100.729 79.0503 102.508 79.3467 104.238C80.3512 108.535 86.1773 116.638 80.8646 121.192C75.5519 125.745 66.4332 125.489 64.9265 130.824C63.4197 136.159 66.4444 150.813 61.3884 157.611C56.3324 164.408 46.4547 163.939 41.142 168.493C35.8293 173.046 36.5883 175.58 36.5883 175.58" stroke="white" stroke-width="0.5" stroke-linecap="round" stroke-linejoin="round"/>
<path d="M82.6281 94.1147C82.1681 94.7648 81.7434 95.4391 81.3557 96.1348" stroke="white" stroke-width="0.5" stroke-linecap="round" stroke-linejoin="round"/>
<path d="M112.317 160.111L113.6 170.156C113.6 170.156 120.297 176.852 125.219 180.993C130.141 185.134 142.753 193.895 142.753 193.895L136.358 195.715C136.358 195.715 115.453 183.326 111.323 182.321C107.194 181.317 104.102 175.357 102.819 173.549C101.535 171.741 108.957 158.303 112.317 160.111Z" fill="white" stroke="#323550" stroke-linecap="round" stroke-linejoin="round"/>
<path d="M125.085 323.544C125.085 323.544 131.402 328.879 134.014 330.664C136.626 332.45 139.673 333.254 139.193 334.225C138.713 335.196 137.407 336.167 131.257 335.341C125.107 334.515 123.333 332.428 122.194 332.104C121.056 331.78 118.31 332.595 116.212 331.301C114.114 330.006 117.44 322.293 117.44 322.293C118.361 323.371 119.635 324.088 121.034 324.316C122.433 324.545 123.868 324.271 125.085 323.544Z" fill="white" stroke="#323550" stroke-linecap="round" stroke-linejoin="round"/>
<path d="M139.171 334.225C139.175 334.173 139.175 334.121 139.171 334.069C135.62 334.395 132.04 334.058 128.612 333.075C124.639 332.138 123.467 330.028 119.683 330.028C118.198 330.042 116.722 329.8 115.319 329.314C115.278 329.686 115.329 330.063 115.468 330.411C115.606 330.759 115.827 331.068 116.112 331.312C118.21 332.606 120.967 331.792 122.094 332.115C123.221 332.439 125.007 334.548 131.157 335.352C137.307 336.156 138.679 335.196 139.171 334.225Z" fill="white" stroke="#323550" stroke-linecap="round" stroke-linejoin="round"/>
<path d="M92.0146 107.832C92.0146 107.832 93.2312 116.024 91.6686 119.328C90.106 122.631 85.2175 122.989 81.0432 123.692C76.8689 124.395 67.2815 128.045 68.3195 137.453C69.3574 146.862 81.3892 167.243 81.3892 172.991C81.3892 178.739 77.7283 181.696 73.7215 192.846C69.7146 203.996 70.2392 224.734 71.4892 238.149C72.4054 247.004 74.1543 255.752 76.7126 264.278C76.7126 264.278 66.6676 280.484 62.2031 287.448C57.7387 294.413 42.113 324.738 42.113 324.738C42.113 324.738 42.113 325.776 44.5462 326.479C46.258 326.895 48.029 327.012 49.7808 326.825C49.7808 326.825 79.7373 290.763 85.3179 284.669C90.8985 278.575 96.1219 267.927 96.8139 263.061C97.5059 258.195 96.6465 228.395 96.6465 228.395C96.6465 228.395 102.908 243.373 107.808 251.041C110.779 255.733 113.506 260.576 115.978 265.55C115.291 271.856 115.291 278.218 115.978 284.524C117.194 293.23 116.167 321.2 117.384 323.465C118.6 325.731 123.322 324.782 124.371 323.744C125.42 322.706 125.911 315.932 125.911 315.932C125.911 315.932 127.998 294.725 129.259 284.747C130.521 274.769 132.608 266.276 131.882 264.01C131.157 261.744 126.826 237.524 123.511 226.062C120.197 214.599 110.118 193.136 107.886 187.567C105.654 181.998 104.392 176.93 104.749 175.189C105.107 173.448 111.893 163.001 113.678 160.211C114.696 158.32 115.258 156.216 115.318 154.069C115.378 151.922 114.935 149.79 114.024 147.844C111.937 143.313 114.024 137.208 113.678 133.558C113.332 129.908 107.93 128.324 105.14 126.94C102.35 125.556 101.301 122.408 101.301 119.796C101.471 117.596 102.003 115.439 102.874 113.412C102.874 113.412 94.2803 107.832 92.0146 107.832Z" fill="white" stroke="#323550" stroke-linecap="round" stroke-linejoin="round"/>
<path d="M113.132 145.099C112.214 142.766 111.449 140.377 110.844 137.945" stroke="#323550" stroke-linecap="round" stroke-linejoin="round"/>
<path d="M90.5078 164.497C90.5078 164.497 93.6553 165.189 99.9613 162.041" stroke="#323550" stroke-linecap="round" stroke-linejoin="round"/>
<path d="M123.545 225.95C120.386 214.968 111.022 194.911 108.221 188.293C94.8272 193.315 82.3044 189.029 76.4225 186.261C75.5742 188.114 74.659 190.257 73.7215 192.846C69.7146 204.007 70.2392 224.734 71.4892 238.149C72.4054 247.004 74.1543 255.752 76.7126 264.278C76.7126 264.278 66.6676 280.484 62.2031 287.448C57.7387 294.413 42.113 324.738 42.113 324.738C42.113 324.738 42.113 325.776 44.5462 326.479C46.258 326.895 48.029 327.012 49.7808 326.825C49.7808 326.825 79.7373 290.763 85.3179 284.669C90.8985 278.575 96.1219 267.927 96.8139 263.061C97.5059 258.195 96.6465 228.395 96.6465 228.395C96.6465 228.395 102.908 243.373 107.808 251.041C110.779 255.733 113.506 260.576 115.978 265.55C115.291 271.856 115.291 278.218 115.978 284.524C117.194 293.23 116.167 321.2 117.384 323.465C118.6 325.731 123.322 324.782 124.371 323.744C125.42 322.706 125.911 315.932 125.911 315.932C125.911 315.932 127.998 294.725 129.259 284.747C130.521 274.769 132.608 266.276 131.882 264.01C131.157 261.744 126.86 237.446 123.545 225.95Z" fill="#323550" stroke="#323550" stroke-linecap="round" stroke-linejoin="round"/>
<path d="M191.784 214.89V212.613H193.693V194.733H191.784H172.944H171.036V212.613H172.944V214.89H171.024V219.042H178.38V217.646H186.349V219.042H193.704V214.89H191.784Z" fill="#079090" stroke="#323550" stroke-linecap="round" stroke-linejoin="round"/>
<path d="M70.016 189.386H201.45C201.977 189.386 202.482 189.596 202.855 189.968C203.227 190.341 203.437 190.846 203.437 191.373V195.369C203.437 195.896 203.227 196.401 202.855 196.774C202.482 197.146 201.977 197.355 201.45 197.355H70.016V189.375V189.386Z" fill="#079090" stroke="#323550" stroke-linecap="round" stroke-linejoin="round"/>
<path d="M164.35 188.192H156.348C155.737 188.192 155.243 188.687 155.243 189.297V197.456C155.243 198.066 155.737 198.561 156.348 198.561H164.35C164.96 198.561 165.455 198.066 165.455 197.456V189.297C165.455 188.687 164.96 188.192 164.35 188.192Z" fill="#079090" stroke="#323550" stroke-linecap="round" stroke-linejoin="round"/>
<path d="M74.1281 196.733C75.9799 185.424 68.3138 174.755 57.0052 172.904C45.6967 171.052 35.0281 178.718 33.1763 190.026C31.3245 201.335 38.9906 212.004 50.2991 213.855C61.6077 215.707 72.2762 208.041 74.1281 196.733Z" fill="#079090" stroke="#323550" stroke-linecap="round" stroke-linejoin="round"/>
<path d="M57.9173 193.326C59.1202 192.75 60.141 191.854 60.8676 190.735C61.5942 189.617 61.9984 188.32 62.0358 186.987C62.0358 182.913 58.2856 179.609 53.6538 179.609C49.0219 179.609 45.2717 182.958 45.2717 186.987C45.3067 188.32 45.7099 189.619 46.4367 190.737C47.1636 191.856 48.1858 192.752 49.3902 193.326C48.1865 193.904 47.1652 194.803 46.4387 195.923C45.7121 197.043 45.3084 198.342 45.2717 199.677C45.2717 203.751 49.0219 207.054 53.6538 207.054C58.2856 207.054 62.0358 203.706 62.0358 199.677C61.9967 198.343 61.5919 197.045 60.8656 195.925C60.1394 194.805 59.1195 193.906 57.9173 193.326Z" fill="white" stroke="#323550" stroke-linecap="round" stroke-linejoin="round"/>
<path d="M138.657 197.534C138.657 197.534 145.153 200.28 147.162 200.28C149.171 200.28 151.492 198.259 152.642 195.815C153.792 193.371 153.758 192.21 153.077 192.79L151.638 193.907C151.638 193.907 152.754 191.462 151.492 191.752C150.619 192.043 149.894 192.664 149.472 193.482C149.472 193.482 149.327 191.317 148.178 192.366C147.417 193.055 146.739 193.831 146.157 194.677C146.157 194.677 146.012 191.942 145.287 192.657C144.561 193.371 141.838 197.266 141.838 197.266L138.657 197.534Z" fill="white" stroke="#323550" stroke-linecap="round" stroke-linejoin="round"/>
<path d="M146.157 194.654C146.157 194.654 145.722 198.114 143.568 198.695L146.157 194.654Z" fill="white"/>
<path d="M146.157 194.654C146.157 194.654 145.722 198.114 143.568 198.695" stroke="#323550" stroke-linecap="round" stroke-linejoin="round"/>
<path d="M149.472 193.505C149.472 193.505 148.356 198.974 146.593 199.844L149.472 193.505Z" fill="white"/>
<path d="M149.472 193.505C149.472 193.505 148.356 198.974 146.593 199.844" stroke="#323550" stroke-linecap="round" stroke-linejoin="round"/>
<path d="M151.638 193.929C151.062 195.925 150.288 197.858 149.327 199.699L151.638 193.929Z" fill="white"/>
<path d="M151.638 193.929C151.062 195.925 150.288 197.858 149.327 199.699" stroke="#323550" stroke-linecap="round" stroke-linejoin="round"/>
<path d="M104.727 126.605C103.603 125.846 102.693 124.811 102.083 123.599C101.473 122.388 101.185 121.04 101.245 119.685C101.445 117.52 101.995 115.401 102.875 113.412C102.875 113.412 94.3362 107.832 92.0705 107.832C92.0705 107.832 93.2871 116.024 91.7245 119.328C91.2124 120.355 90.3772 121.187 89.3472 121.694C91.4107 127.249 94.2071 132.504 97.6622 137.32C100.799 141.259 102.328 132.955 104.727 126.605Z" fill="white" stroke="#323550" stroke-linecap="round" stroke-linejoin="round"/>
<path d="M78.3757 124.819C76.2459 125.183 74.2297 126.036 72.4865 127.313C70.7432 128.589 69.3205 130.254 68.3306 132.174C64.893 138.804 49.8701 168.894 51.1536 170.691C58.453 180.96 85.0054 188.348 87.7064 191.049C90.4066 193.874 93.3704 196.434 96.5572 198.695C99.2582 200.414 104.649 199.677 105.631 199.186C106.613 198.695 107.35 196.485 105.631 196.485C104.975 196.493 104.335 196.277 103.819 195.87C103.303 195.464 102.942 194.893 102.796 194.253C102.551 193.27 105.497 195.235 106.971 194.498C108.444 193.762 103.678 191.072 102.205 189.844C100.731 188.616 99.5038 186.909 97.5394 186.909C95.575 186.909 91.8807 186.909 91.8807 186.909C91.8807 186.909 82.8402 180.357 77.3712 175.48C73.1157 171.64 68.4739 168.251 63.5202 165.368L80.0945 138.101" fill="white"/>
<path d="M78.3757 124.819C76.2459 125.183 74.2297 126.036 72.4864 127.313C70.7432 128.589 69.3205 130.254 68.3306 132.174C64.893 138.804 49.8701 168.894 51.1536 170.691C58.453 180.96 85.0054 188.348 87.7064 191.049C90.4066 193.874 93.3704 196.434 96.5572 198.695C99.2582 200.414 104.649 199.677 105.631 199.186C106.613 198.695 107.35 196.485 105.631 196.485C104.975 196.493 104.335 196.277 103.819 195.87C103.303 195.464 102.942 194.893 102.796 194.253C102.551 193.27 105.497 195.235 106.971 194.498C108.444 193.761 103.678 191.072 102.205 189.844C100.731 188.616 99.5038 186.909 97.5394 186.909C95.575 186.909 91.8807 186.909 91.8807 186.909C91.8807 186.909 82.8402 180.357 77.3712 175.48C73.1157 171.64 68.4739 168.251 63.5202 165.368L80.0945 138.101" stroke="#323550" stroke-linecap="round" stroke-linejoin="round"/>
<path d="M102.194 189.855C100.72 188.627 99.4927 186.92 97.5283 186.92C95.564 186.92 91.8696 186.92 91.8696 186.92C91.8696 186.92 82.8291 180.368 77.3601 175.491C73.1046 171.651 68.4628 168.262 63.5091 165.379L70.1388 154.463C66.7494 152.412 62.8723 151.305 58.9107 151.26C54.4462 160.568 50.4394 169.765 51.0979 170.736C58.3973 181.004 84.9497 188.393 87.6507 191.094C90.3509 193.918 93.3146 196.478 96.5015 198.739C99.2025 200.458 104.593 199.722 105.576 199.231C106.558 198.739 107.294 196.529 105.576 196.529C104.919 196.538 104.279 196.321 103.763 195.915C103.247 195.509 102.886 194.938 102.741 194.297C102.495 193.315 105.442 195.279 106.915 194.543C108.388 193.806 103.667 191.094 102.194 189.855Z" fill="white" stroke="#323550" stroke-linecap="round" stroke-linejoin="round"/>
<path d="M111.178 95.8111C110.308 94.07 110.308 92.6749 110.654 90.2306C111 87.7863 108.913 81.8597 108.913 81.8597C106.781 85.5429 100.62 87.7305 97.8967 88.5564C94.8943 89.4716 99.2807 91.5476 98.8119 94.3267C98.3431 97.1058 92.3496 98.713 92.3496 98.713C92.3496 98.713 90.5973 95.108 88.1641 95.108C85.731 95.108 84.001 100.689 85.385 103.646C85.7456 104.466 86.3738 105.138 87.1666 105.554C87.9595 105.97 88.87 106.104 89.749 105.934C89.749 105.934 89.5816 111.169 92.8853 112.731C96.4104 114.413 100.088 115.755 103.868 116.738C105.955 117.084 108.042 116.046 108.913 112.91C109.594 109.749 110.06 106.546 110.308 103.323C111.769 102.366 113.114 101.243 114.315 99.9743C115.152 98.7688 112.049 97.5523 111.178 95.8111Z" fill="white" stroke="#323550" stroke-linecap="round" stroke-linejoin="round"/>
<path d="M107.785 95.8893C107.785 96.8491 107.473 97.6193 107.093 97.6193C106.714 97.6193 106.401 96.8491 106.401 95.8893C106.401 94.9294 106.714 94.1593 107.093 94.1593C107.473 94.1593 107.785 94.9294 107.785 95.8893Z" fill="#323550"/>
<path d="M104.783 93.0097C104.783 93.0097 106.636 90.9226 108.02 91.3913" stroke="#323550" stroke-linecap="round" stroke-linejoin="round"/>
<path d="M108.02 107.318C107.183 107.571 106.296 107.6 105.444 107.405C104.593 107.209 103.807 106.794 103.165 106.202" stroke="#323550" stroke-linecap="round" stroke-linejoin="round"/>
<path d="M42.1911 324.738C42.1911 324.738 38.028 333.086 38.1842 334.225C38.3405 335.363 46.5997 341.346 50.4615 343.444C54.3233 345.542 61.3102 345.877 60.8191 342.964C60.328 340.051 53.6982 338.109 52.0799 333.734C51.218 331.47 50.473 329.165 49.8476 326.825C47.1497 326.865 44.4954 326.141 42.1911 324.738Z" fill="white" stroke="#323550" stroke-linecap="round" stroke-linejoin="round"/>
<path d="M60.8414 343.009C57.8699 343.407 54.846 342.978 52.1022 341.77C46.1087 339.169 40.3049 333.856 38.7088 332.35C38.4254 332.952 38.2443 333.597 38.1731 334.258C38.3405 335.374 46.5886 341.379 50.4504 343.477C54.3121 345.576 61.2432 345.866 60.8414 343.009Z" fill="white" stroke="#323550" stroke-linecap="round" stroke-linejoin="round"/>
</svg>
