<svg width="25" height="22" viewBox="0 0 25 22" fill="none" xmlns="http://www.w3.org/2000/svg">
<path d="M21.1115 4.35796C17.7726 2.1518 13.3346 1.64963 9.648 2.315C5.52344 -1.6633 0 0.692599 0 0.692599C0 0.692599 3.17188 3.38791 2.65668 5.74859C-1.09852 9.57671 0.686632 13.8389 2.65668 15.8515C3.17188 18.2121 0 20.9074 0 20.9074C0.892795 21.4352 5.50217 23.2594 9.648 19.3015C13.3264 19.9626 17.7643 19.4647 21.1115 17.2547C26.2878 13.95 26.3047 7.68001 21.1115 4.35796ZM12.7682 17.2334C11.4774 17.2371 10.1916 17.0712 8.94401 16.7399L8.08594 17.5685C7.60931 18.0307 7.07563 18.4302 6.49783 18.7573C5.79681 19.1102 5.03526 19.3272 4.25347 19.3966C4.29688 19.3193 4.33507 19.2421 4.3737 19.1692C5.23221 17.5777 5.46369 16.1499 5.06814 14.8857C3.65625 13.7742 2.8112 12.3536 2.8112 10.8002C2.8112 7.24121 7.2704 4.35796 12.7682 4.35796C18.2661 4.35796 22.7253 7.24121 22.7253 10.8002C22.7253 14.3593 18.2661 17.2334 12.7682 17.2334ZM7.99132 12.3324C7.59713 12.3379 7.21681 12.187 6.9337 11.9127C6.65058 11.6384 6.48776 11.263 6.4809 10.8688C6.45052 8.89876 9.42491 8.85579 9.45486 10.8215V10.8436C9.45669 11.0376 9.42028 11.23 9.3477 11.4098C9.27512 11.5897 9.16779 11.7535 9.03187 11.8918C8.89594 12.0302 8.73408 12.1403 8.55553 12.2161C8.37698 12.2918 8.18526 12.3308 7.99132 12.3324ZM11.1931 10.8688C11.1589 8.89876 14.1332 8.85145 14.1675 10.8172V10.8436C14.1845 12.8002 11.2274 12.8215 11.1931 10.8688ZM17.4162 12.3324C17.022 12.3379 16.6416 12.187 16.3585 11.9127C16.0753 11.6384 15.9123 11.263 15.9054 10.8688C15.8754 8.89876 18.8498 8.85579 18.8798 10.8215V10.8436C18.8822 11.0377 18.8463 11.2304 18.7739 11.4106C18.7015 11.5907 18.5943 11.7547 18.4582 11.8932C18.3222 12.0317 18.16 12.1419 17.9812 12.2174C17.8024 12.2929 17.6104 12.3314 17.4162 12.3324Z" fill="#079090"/>
</svg>
