<svg width="25" height="18" viewBox="0 0 25 18" fill="none" xmlns="http://www.w3.org/2000/svg">
<path d="M23.75 11.25H21.25V13.75H22.125C22.332 13.75 22.5 13.8906 22.5 14.0625V14.6875C22.5 14.8594 22.332 15 22.125 15H2.875C2.66797 15 2.5 14.8594 2.5 14.6875V14.0625C2.5 13.8906 2.66797 13.75 2.875 13.75H3.75V11.25H1.25C0.558594 11.25 0 11.8086 0 12.5V16.25C0 16.9414 0.558594 17.5 1.25 17.5H23.75C24.4414 17.5 25 16.9414 25 16.25V12.5C25 11.8086 24.4414 11.25 23.75 11.25ZM20 13.75V1.26172C20 0.5625 19.4336 0 18.7383 0H6.26562C5.56641 0 5 0.566406 5 1.26172V13.75H20ZM8.25 6.64062L9.24609 5.65234C9.41016 5.48828 9.67578 5.48828 9.83984 5.65625L11.4531 7.28125L15.1719 3.59375C15.3359 3.42969 15.6016 3.42969 15.7656 3.59766L16.7539 4.59375C16.918 4.75781 16.918 5.02344 16.75 5.1875L11.7383 10.1562C11.5742 10.3203 11.3086 10.3203 11.1445 10.1523L8.25 7.23438C8.08203 7.07031 8.08594 6.80469 8.25 6.64062Z" fill="#079090"/>
</svg>
